<svg xmlns="http://www.w3.org/2000/svg" xmlns:xlink="http://www.w3.org/1999/xlink" width="500" zoomAndPan="magnify" viewBox="0 0 375 374.999991" height="500" preserveAspectRatio="xMidYMid meet" version="1.2"><defs><clipPath id="760a4b3117"><path d="M 41.75 118.269531 L 160.902344 118.269531 L 160.902344 255.9375 L 41.75 255.9375 Z M 41.75 118.269531 "/></clipPath><clipPath id="a46f5b683a"><path d="M 72.464844 150.882812 L 128 150.882812 L 128 224.402344 L 72.464844 224.402344 Z M 72.464844 150.882812 "/></clipPath><clipPath id="01ff2f929e"><path d="M 90 168 L 108 168 L 108 196 L 90 196 Z M 90 168 "/></clipPath><clipPath id="abeaba0a9c"><path d="M 93.753906 165.492188 L 109.734375 168.902344 L 103.597656 197.660156 L 87.621094 194.253906 Z M 93.753906 165.492188 "/></clipPath><clipPath id="27fe5b075a"><path d="M 93.753906 165.492188 L 109.734375 168.902344 L 103.597656 197.660156 L 87.621094 194.253906 Z M 93.753906 165.492188 "/></clipPath></defs><g id="1c431aaccf"><g clip-rule="nonzero" clip-path="url(#760a4b3117)"><path style=" stroke:none;fill-rule:nonzero;fill:#02582c;fill-opacity:1;" d="M 151.925781 181.285156 C 149.191406 195.503906 143.984375 208.15625 136.449219 218.890625 C 127.796875 231.214844 115.941406 241.140625 101.167969 248.4375 C 86.542969 241.144531 74.789062 231.226562 66.191406 218.914062 C 58.699219 208.171875 53.503906 195.511719 50.761719 181.28125 C 48.277344 168.417969 48.292969 156.652344 48.746094 149.050781 C 48.894531 146.535156 49.097656 144.316406 49.308594 142.453125 C 53.234375 141.769531 58.472656 140.75 64.328125 139.332031 C 74.632812 136.832031 88.886719 132.574219 101.386719 125.992188 C 113.878906 132.578125 128.101562 136.835938 138.378906 139.339844 C 144.222656 140.761719 149.40625 141.773438 153.304688 142.457031 C 153.519531 144.316406 153.726562 146.539062 153.886719 149.078125 C 154.359375 156.675781 154.40625 168.425781 151.925781 181.285156 Z M 160.636719 148.660156 C 160.292969 143.105469 159.695312 138.898438 159.308594 136.578125 C 155.914062 136.078125 148.746094 134.902344 139.980469 132.765625 C 129.195312 130.140625 113.933594 125.527344 101.386719 118.269531 C 88.84375 125.519531 73.546875 130.132812 62.734375 132.757812 C 53.988281 134.878906 46.699219 136.074219 43.277344 136.578125 C 42.902344 138.878906 42.324219 143.050781 41.992188 148.648438 C 41.519531 156.640625 41.503906 169.007812 44.121094 182.5625 C 47.042969 197.726562 52.609375 211.261719 60.648438 222.785156 C 70.484375 236.878906 84.109375 248.027344 101.15625 255.9375 C 118.355469 248.027344 132.085938 236.875 141.984375 222.777344 C 150.070312 211.257812 155.652344 197.726562 158.570312 182.5625 C 161.179688 169.007812 161.132812 156.644531 160.636719 148.660156 "/></g><path style=" stroke:none;fill-rule:nonzero;fill:#02582c;fill-opacity:1;" d="M 100.101562 159.417969 C 110.683594 159.417969 119.265625 168 119.265625 178.582031 C 119.265625 189.171875 110.683594 197.75 100.101562 197.75 C 89.515625 197.75 80.933594 189.171875 80.933594 178.582031 C 80.933594 168 89.515625 159.417969 100.101562 159.417969 Z M 127.15625 178.582031 C 127.15625 163.640625 115.042969 151.523438 100.101562 151.523438 C 85.15625 151.523438 73.039062 163.640625 73.039062 178.582031 C 73.039062 185.753906 75.835938 192.265625 80.386719 197.109375 L 89.089844 208.742188 L 100.101562 223.453125 L 111.109375 208.742188 L 119.808594 197.109375 C 124.363281 192.265625 127.15625 185.753906 127.15625 178.582031 "/><g clip-rule="nonzero" clip-path="url(#a46f5b683a)"><path style=" stroke:none;fill-rule:nonzero;fill:#02582c;fill-opacity:1;" d="M 100.101562 159.417969 L 100.101562 159.996094 C 105.234375 159.996094 109.878906 162.074219 113.246094 165.4375 C 116.609375 168.804688 118.691406 173.449219 118.691406 178.582031 C 118.691406 183.71875 116.609375 188.363281 113.246094 191.730469 C 109.878906 195.09375 105.234375 197.175781 100.101562 197.175781 C 94.964844 197.175781 90.320312 195.09375 86.953125 191.730469 C 83.589844 188.363281 81.511719 183.71875 81.507812 178.582031 C 81.511719 173.449219 83.589844 168.804688 86.953125 165.4375 C 90.320312 162.074219 94.964844 159.996094 100.101562 159.996094 L 100.101562 158.84375 C 89.195312 158.84375 80.359375 167.679688 80.359375 178.582031 C 80.359375 189.488281 89.195312 198.324219 100.101562 198.324219 C 111.003906 198.324219 119.839844 189.488281 119.839844 178.582031 C 119.839844 167.679688 111.003906 158.84375 100.101562 158.84375 Z M 127.15625 178.582031 L 127.734375 178.582031 C 127.730469 163.324219 115.363281 150.949219 100.101562 150.949219 C 84.835938 150.949219 72.464844 163.324219 72.464844 178.582031 C 72.464844 185.902344 75.320312 192.5625 79.96875 197.503906 L 80.386719 197.109375 L 79.925781 197.457031 L 88.628906 209.085938 L 99.640625 223.796875 C 99.746094 223.941406 99.917969 224.027344 100.101562 224.027344 C 100.28125 224.027344 100.453125 223.941406 100.558594 223.796875 L 111.570312 209.085938 L 120.269531 197.457031 L 119.808594 197.109375 L 120.230469 197.503906 C 124.875 192.5625 127.734375 185.902344 127.734375 178.582031 L 126.582031 178.582031 C 126.582031 185.601562 123.847656 191.972656 119.390625 196.714844 L 119.347656 196.765625 L 110.648438 208.398438 L 100.101562 222.492188 L 89.550781 208.398438 L 80.847656 196.765625 L 80.804688 196.714844 C 76.351562 191.976562 73.617188 185.601562 73.617188 178.582031 C 73.617188 171.269531 76.578125 164.652344 81.375 159.855469 C 86.167969 155.0625 92.785156 152.101562 100.101562 152.101562 C 107.414062 152.101562 114.03125 155.0625 118.828125 159.855469 C 123.621094 164.652344 126.582031 171.269531 126.582031 178.582031 L 127.15625 178.582031 "/></g><g clip-rule="nonzero" clip-path="url(#01ff2f929e)"><g clip-rule="nonzero" clip-path="url(#abeaba0a9c)"><g clip-rule="nonzero" clip-path="url(#27fe5b075a)"><path style=" stroke:none;fill-rule:nonzero;fill:#02582c;fill-opacity:1;" d="M 92.363281 195.160156 C 92.164062 194.945312 91.863281 193.195312 91.839844 192.097656 C 91.835938 191.339844 91.890625 190.585938 92.011719 189.835938 C 92.074219 189.460938 92.105469 189.148438 92.082031 189.074219 C 92.066406 189 91.898438 188.542969 91.714844 188.054688 C 91.265625 186.855469 90.980469 185.71875 90.867188 184.703125 C 90.820312 184.257812 90.746094 183.613281 90.703125 183.269531 C 90.503906 181.683594 90.59375 180.304688 90.976562 178.992188 C 91.773438 176.257812 93.375 174.710938 96.636719 173.523438 C 97.019531 173.382812 97.859375 173.101562 98.496094 172.894531 C 101.027344 172.070312 101.453125 171.878906 103.839844 170.46875 C 104.382812 170.148438 105.28125 169.578125 105.835938 169.203125 C 106.941406 168.457031 107.136719 168.355469 107.355469 168.402344 C 107.738281 168.484375 107.773438 168.675781 107.578125 169.59375 C 107.40625 170.402344 107.351562 170.984375 107.324219 172.324219 C 107.3125 173.445312 107.230469 174.554688 107.078125 175.664062 C 106.621094 179.230469 106.3125 180.472656 105.523438 181.996094 C 104.550781 183.871094 103.019531 185.449219 101.488281 186.152344 C 100.265625 186.703125 99.011719 187.164062 97.71875 187.535156 C 95.847656 188.082031 94.703125 188.503906 93.851562 188.957031 C 93.6875 189.054688 93.515625 189.136719 93.339844 189.207031 C 93.261719 189.1875 93.625 187.886719 93.902344 187.191406 C 94.261719 186.28125 94.941406 185.054688 95.691406 183.96875 C 96.621094 182.617188 97.417969 181.65625 99.464844 179.414062 C 100.527344 178.242188 100.808594 177.941406 101.765625 176.921875 C 102.867188 175.753906 103.082031 175.507812 103.554688 174.886719 C 104.351562 173.835938 104.832031 172.835938 104.570312 172.78125 C 104.496094 172.765625 104.5 172.761719 104.324219 173.128906 C 104.164062 173.457031 103.433594 174.464844 102.976562 174.984375 C 102.613281 175.398438 101.824219 176.226562 101.160156 176.886719 C 100.957031 177.089844 100.410156 177.679688 99.945312 178.199219 C 99.476562 178.722656 98.796875 179.46875 98.433594 179.863281 C 95.570312 182.960938 93.816406 185.523438 92.988281 187.816406 C 92.800781 188.339844 92.515625 189.742188 92.460938 190.402344 C 92.347656 191.84375 92.503906 193.40625 92.875 194.511719 C 93.03125 194.960938 92.984375 195.191406 92.730469 195.261719 C 92.582031 195.316406 92.460938 195.28125 92.363281 195.160156 Z M 92.363281 195.160156 "/></g></g></g><g style="fill:#02582c;fill-opacity:1;"><g transform="translate(169.060126, 183.650346)"><path style="stroke:none" d="M 29.703125 -26.796875 C 29.171875 -28.648438 28.191406 -30.101562 26.765625 -31.15625 C 25.347656 -32.207031 23.5625 -32.734375 21.40625 -32.734375 C 18.375 -32.734375 15.921875 -31.613281 14.046875 -29.375 C 12.171875 -27.144531 11.234375 -23.96875 11.234375 -19.84375 C 11.234375 -15.695312 12.15625 -12.492188 14 -10.234375 C 15.84375 -7.984375 18.335938 -6.859375 21.484375 -6.859375 C 24.265625 -6.859375 26.453125 -7.582031 28.046875 -9.03125 C 29.640625 -10.488281 30.460938 -12.441406 30.515625 -14.890625 L 22 -14.890625 L 22 -21.1875 L 38.578125 -21.1875 L 38.578125 -16.203125 C 38.578125 -12.734375 37.84375 -9.742188 36.375 -7.234375 C 34.90625 -4.734375 32.882812 -2.8125 30.3125 -1.46875 C 27.738281 -0.125 24.78125 0.546875 21.4375 0.546875 C 17.726562 0.546875 14.46875 -0.273438 11.65625 -1.921875 C 8.84375 -3.566406 6.65625 -5.90625 5.09375 -8.9375 C 3.53125 -11.976562 2.75 -15.585938 2.75 -19.765625 C 2.75 -24.046875 3.566406 -27.707031 5.203125 -30.75 C 6.835938 -33.789062 9.050781 -36.113281 11.84375 -37.71875 C 14.644531 -39.332031 17.785156 -40.140625 21.265625 -40.140625 C 24.253906 -40.140625 26.960938 -39.570312 29.390625 -38.4375 C 31.816406 -37.300781 33.800781 -35.726562 35.34375 -33.71875 C 36.894531 -31.71875 37.847656 -29.410156 38.203125 -26.796875 Z M 29.703125 -26.796875 "/></g></g><g style="fill:#02582c;fill-opacity:1;"><g transform="translate(210.478718, 183.650346)"><path style="stroke:none" d="M 3.28125 0 L 3.28125 -29.703125 L 11.265625 -29.703125 L 11.265625 -24.515625 L 11.578125 -24.515625 C 12.117188 -26.359375 13.023438 -27.753906 14.296875 -28.703125 C 15.566406 -29.648438 17.039062 -30.125 18.71875 -30.125 C 19.519531 -30.125 20.257812 -30.023438 20.9375 -29.828125 C 21.625 -29.640625 22.238281 -29.378906 22.78125 -29.046875 L 20.296875 -22.234375 C 19.910156 -22.429688 19.488281 -22.597656 19.03125 -22.734375 C 18.570312 -22.867188 18.0625 -22.9375 17.5 -22.9375 C 15.832031 -22.9375 14.421875 -22.367188 13.265625 -21.234375 C 12.117188 -20.097656 11.539062 -18.617188 11.53125 -16.796875 L 11.53125 0 Z M 3.28125 0 "/></g></g><g style="fill:#02582c;fill-opacity:1;"><g transform="translate(232.425469, 183.650346)"><path style="stroke:none" d="M 16.828125 0.578125 C 13.785156 0.578125 11.160156 -0.0390625 8.953125 -1.28125 C 6.742188 -2.53125 5.046875 -4.296875 3.859375 -6.578125 C 2.679688 -8.867188 2.09375 -11.582031 2.09375 -14.71875 C 2.09375 -17.769531 2.679688 -20.445312 3.859375 -22.75 C 5.046875 -25.0625 6.71875 -26.863281 8.875 -28.15625 C 11.039062 -29.445312 13.582031 -30.09375 16.5 -30.09375 C 19.113281 -30.09375 21.472656 -29.535156 23.578125 -28.421875 C 25.691406 -27.316406 27.363281 -25.644531 28.59375 -23.40625 C 29.832031 -21.164062 30.453125 -18.363281 30.453125 -15 L 30.453125 -12.75 L 10.234375 -12.75 L 10.234375 -12.71875 C 10.234375 -10.5 10.835938 -8.75 12.046875 -7.46875 C 13.253906 -6.195312 14.890625 -5.5625 16.953125 -5.5625 C 18.335938 -5.5625 19.53125 -5.851562 20.53125 -6.4375 C 21.539062 -7.019531 22.25 -7.878906 22.65625 -9.015625 L 30.28125 -8.515625 C 29.695312 -5.753906 28.222656 -3.546875 25.859375 -1.890625 C 23.503906 -0.242188 20.492188 0.578125 16.828125 0.578125 Z M 10.234375 -17.84375 L 22.703125 -17.84375 C 22.691406 -19.613281 22.125 -21.070312 21 -22.21875 C 19.875 -23.363281 18.414062 -23.9375 16.625 -23.9375 C 14.800781 -23.9375 13.300781 -23.34375 12.125 -22.15625 C 10.945312 -20.96875 10.316406 -19.53125 10.234375 -17.84375 Z M 10.234375 -17.84375 "/></g></g><g style="fill:#02582c;fill-opacity:1;"><g transform="translate(264.968648, 183.650346)"><path style="stroke:none" d="M 16.828125 0.578125 C 13.785156 0.578125 11.160156 -0.0390625 8.953125 -1.28125 C 6.742188 -2.53125 5.046875 -4.296875 3.859375 -6.578125 C 2.679688 -8.867188 2.09375 -11.582031 2.09375 -14.71875 C 2.09375 -17.769531 2.679688 -20.445312 3.859375 -22.75 C 5.046875 -25.0625 6.71875 -26.863281 8.875 -28.15625 C 11.039062 -29.445312 13.582031 -30.09375 16.5 -30.09375 C 19.113281 -30.09375 21.472656 -29.535156 23.578125 -28.421875 C 25.691406 -27.316406 27.363281 -25.644531 28.59375 -23.40625 C 29.832031 -21.164062 30.453125 -18.363281 30.453125 -15 L 30.453125 -12.75 L 10.234375 -12.75 L 10.234375 -12.71875 C 10.234375 -10.5 10.835938 -8.75 12.046875 -7.46875 C 13.253906 -6.195312 14.890625 -5.5625 16.953125 -5.5625 C 18.335938 -5.5625 19.53125 -5.851562 20.53125 -6.4375 C 21.539062 -7.019531 22.25 -7.878906 22.65625 -9.015625 L 30.28125 -8.515625 C 29.695312 -5.753906 28.222656 -3.546875 25.859375 -1.890625 C 23.503906 -0.242188 20.492188 0.578125 16.828125 0.578125 Z M 10.234375 -17.84375 L 22.703125 -17.84375 C 22.691406 -19.613281 22.125 -21.070312 21 -22.21875 C 19.875 -23.363281 18.414062 -23.9375 16.625 -23.9375 C 14.800781 -23.9375 13.300781 -23.34375 12.125 -22.15625 C 10.945312 -20.96875 10.316406 -19.53125 10.234375 -17.84375 Z M 10.234375 -17.84375 "/></g></g><g style="fill:#02582c;fill-opacity:1;"><g transform="translate(297.511827, 183.650346)"><path style="stroke:none" d="M 11.53125 -17.171875 L 11.53125 0 L 3.28125 0 L 3.28125 -29.703125 L 11.140625 -29.703125 L 11.140625 -24.46875 L 11.484375 -24.46875 C 12.148438 -26.1875 13.253906 -27.550781 14.796875 -28.5625 C 16.335938 -29.582031 18.210938 -30.09375 20.421875 -30.09375 C 23.515625 -30.09375 25.992188 -29.09375 27.859375 -27.09375 C 29.734375 -25.101562 30.671875 -22.375 30.671875 -18.90625 L 30.671875 0 L 22.4375 0 L 22.4375 -17.4375 C 22.445312 -19.257812 21.976562 -20.679688 21.03125 -21.703125 C 20.09375 -22.734375 18.800781 -23.25 17.15625 -23.25 C 15.488281 -23.25 14.132812 -22.710938 13.09375 -21.640625 C 12.0625 -20.578125 11.539062 -19.085938 11.53125 -17.171875 Z M 11.53125 -17.171875 "/></g></g><g style="fill:#02582c;fill-opacity:1;"><g transform="translate(169.009071, 230.560514)"><path style="stroke:none" d="M 29.703125 -26.796875 C 29.171875 -28.648438 28.191406 -30.101562 26.765625 -31.15625 C 25.347656 -32.207031 23.5625 -32.734375 21.40625 -32.734375 C 18.375 -32.734375 15.921875 -31.613281 14.046875 -29.375 C 12.171875 -27.144531 11.234375 -23.96875 11.234375 -19.84375 C 11.234375 -15.695312 12.15625 -12.492188 14 -10.234375 C 15.84375 -7.984375 18.335938 -6.859375 21.484375 -6.859375 C 24.265625 -6.859375 26.453125 -7.582031 28.046875 -9.03125 C 29.640625 -10.488281 30.460938 -12.441406 30.515625 -14.890625 L 22 -14.890625 L 22 -21.1875 L 38.578125 -21.1875 L 38.578125 -16.203125 C 38.578125 -12.734375 37.84375 -9.742188 36.375 -7.234375 C 34.90625 -4.734375 32.882812 -2.8125 30.3125 -1.46875 C 27.738281 -0.125 24.78125 0.546875 21.4375 0.546875 C 17.726562 0.546875 14.46875 -0.273438 11.65625 -1.921875 C 8.84375 -3.566406 6.65625 -5.90625 5.09375 -8.9375 C 3.53125 -11.976562 2.75 -15.585938 2.75 -19.765625 C 2.75 -24.046875 3.566406 -27.707031 5.203125 -30.75 C 6.835938 -33.789062 9.050781 -36.113281 11.84375 -37.71875 C 14.644531 -39.332031 17.785156 -40.140625 21.265625 -40.140625 C 24.253906 -40.140625 26.960938 -39.570312 29.390625 -38.4375 C 31.816406 -37.300781 33.800781 -35.726562 35.34375 -33.71875 C 36.894531 -31.71875 37.847656 -29.410156 38.203125 -26.796875 Z M 29.703125 -26.796875 "/></g></g><g style="fill:#02582c;fill-opacity:1;"><g transform="translate(210.427662, 230.560514)"><path style="stroke:none" d="M 22.328125 -12.640625 L 22.328125 -29.703125 L 30.578125 -29.703125 L 30.578125 0 L 22.65625 0 L 22.65625 -5.390625 L 22.359375 -5.390625 C 21.679688 -3.648438 20.566406 -2.25 19.015625 -1.1875 C 17.460938 -0.132812 15.570312 0.390625 13.34375 0.390625 C 10.351562 0.390625 7.929688 -0.601562 6.078125 -2.59375 C 4.234375 -4.59375 3.300781 -7.328125 3.28125 -10.796875 L 3.28125 -29.703125 L 11.53125 -29.703125 L 11.53125 -12.265625 C 11.539062 -10.503906 12.007812 -9.113281 12.9375 -8.09375 C 13.863281 -7.082031 15.109375 -6.578125 16.671875 -6.578125 C 18.148438 -6.578125 19.46875 -7.09375 20.625 -8.125 C 21.78125 -9.15625 22.347656 -10.660156 22.328125 -12.640625 Z M 22.328125 -12.640625 "/></g></g><g style="fill:#02582c;fill-opacity:1;"><g transform="translate(244.285729, 230.560514)"><path style="stroke:none" d="M 11.75 0.5625 C 8.914062 0.5625 6.5625 -0.175781 4.6875 -1.65625 C 2.820312 -3.144531 1.890625 -5.359375 1.890625 -8.296875 C 1.890625 -10.515625 2.410156 -12.253906 3.453125 -13.515625 C 4.503906 -14.773438 5.875 -15.695312 7.5625 -16.28125 C 9.257812 -16.875 11.085938 -17.257812 13.046875 -17.4375 C 15.628906 -17.695312 17.472656 -17.96875 18.578125 -18.25 C 19.691406 -18.53125 20.25 -19.148438 20.25 -20.109375 L 20.25 -20.21875 C 20.25 -21.445312 19.863281 -22.394531 19.09375 -23.0625 C 18.320312 -23.738281 17.238281 -24.078125 15.84375 -24.078125 C 14.351562 -24.078125 13.171875 -23.753906 12.296875 -23.109375 C 11.421875 -22.460938 10.84375 -21.644531 10.5625 -20.65625 L 2.9375 -21.265625 C 3.507812 -23.972656 4.914062 -26.117188 7.15625 -27.703125 C 9.40625 -29.296875 12.3125 -30.09375 15.875 -30.09375 C 18.082031 -30.09375 20.144531 -29.742188 22.0625 -29.046875 C 23.976562 -28.347656 25.523438 -27.257812 26.703125 -25.78125 C 27.890625 -24.3125 28.484375 -22.394531 28.484375 -20.03125 L 28.484375 0 L 20.671875 0 L 20.671875 -4.125 L 20.4375 -4.125 C 19.71875 -2.738281 18.640625 -1.609375 17.203125 -0.734375 C 15.765625 0.128906 13.945312 0.5625 11.75 0.5625 Z M 14.109375 -5.125 C 15.921875 -5.125 17.40625 -5.648438 18.5625 -6.703125 C 19.71875 -7.753906 20.296875 -9.054688 20.296875 -10.609375 L 20.296875 -13.765625 C 19.984375 -13.546875 19.488281 -13.351562 18.8125 -13.1875 C 18.132812 -13.019531 17.410156 -12.875 16.640625 -12.75 C 15.867188 -12.625 15.179688 -12.519531 14.578125 -12.4375 C 13.140625 -12.226562 11.976562 -11.820312 11.09375 -11.21875 C 10.207031 -10.613281 9.765625 -9.726562 9.765625 -8.5625 C 9.765625 -7.425781 10.171875 -6.566406 10.984375 -5.984375 C 11.804688 -5.410156 12.847656 -5.125 14.109375 -5.125 Z M 14.109375 -5.125 "/></g></g><g style="fill:#02582c;fill-opacity:1;"><g transform="translate(275.881432, 230.560514)"><path style="stroke:none" d="M 3.28125 0 L 3.28125 -29.703125 L 11.265625 -29.703125 L 11.265625 -24.515625 L 11.578125 -24.515625 C 12.117188 -26.359375 13.023438 -27.753906 14.296875 -28.703125 C 15.566406 -29.648438 17.039062 -30.125 18.71875 -30.125 C 19.519531 -30.125 20.257812 -30.023438 20.9375 -29.828125 C 21.625 -29.640625 22.238281 -29.378906 22.78125 -29.046875 L 20.296875 -22.234375 C 19.910156 -22.429688 19.488281 -22.597656 19.03125 -22.734375 C 18.570312 -22.867188 18.0625 -22.9375 17.5 -22.9375 C 15.832031 -22.9375 14.421875 -22.367188 13.265625 -21.234375 C 12.117188 -20.097656 11.539062 -18.617188 11.53125 -16.796875 L 11.53125 0 Z M 3.28125 0 "/></g></g><g style="fill:#02582c;fill-opacity:1;"><g transform="translate(297.828183, 230.560514)"><path style="stroke:none" d="M 14.234375 0.484375 C 11.972656 0.484375 9.929688 -0.0976562 8.109375 -1.265625 C 6.296875 -2.429688 4.851562 -4.148438 3.78125 -6.421875 C 2.71875 -8.703125 2.1875 -11.5 2.1875 -14.8125 C 2.1875 -18.21875 2.734375 -21.050781 3.828125 -23.3125 C 4.929688 -25.570312 6.394531 -27.265625 8.21875 -28.390625 C 10.050781 -29.523438 12.050781 -30.09375 14.21875 -30.09375 C 15.875 -30.09375 17.257812 -29.8125 18.375 -29.25 C 19.488281 -28.6875 20.390625 -27.992188 21.078125 -27.171875 C 21.773438 -26.347656 22.300781 -25.53125 22.65625 -24.71875 L 22.921875 -24.71875 L 22.921875 -39.609375 L 31.125 -39.609375 L 31.125 0 L 23.015625 0 L 23.015625 -4.75 L 22.65625 -4.75 C 22.289062 -3.925781 21.75 -3.113281 21.03125 -2.3125 C 20.320312 -1.507812 19.410156 -0.84375 18.296875 -0.3125 C 17.179688 0.21875 15.828125 0.484375 14.234375 0.484375 Z M 16.84375 -6.078125 C 18.832031 -6.078125 20.367188 -6.878906 21.453125 -8.484375 C 22.546875 -10.085938 23.09375 -12.207031 23.09375 -14.84375 C 23.09375 -17.5 22.550781 -19.609375 21.46875 -21.171875 C 20.382812 -22.742188 18.84375 -23.53125 16.84375 -23.53125 C 14.800781 -23.53125 13.25 -22.726562 12.1875 -21.125 C 11.125 -19.519531 10.59375 -17.425781 10.59375 -14.84375 C 10.59375 -12.257812 11.128906 -10.148438 12.203125 -8.515625 C 13.273438 -6.890625 14.820312 -6.078125 16.84375 -6.078125 Z M 16.84375 -6.078125 "/></g></g></g></svg>