<svg xmlns="http://www.w3.org/2000/svg" xmlns:xlink="http://www.w3.org/1999/xlink" width="500" zoomAndPan="magnify" viewBox="0 0 375 374.999991" height="500" preserveAspectRatio="xMidYMid meet" version="1.2"><defs><clipPath id="65e64658d4"><path d="M 78.074219 61.074219 L 296.292969 61.074219 L 296.292969 313.195312 L 78.074219 313.195312 Z M 78.074219 61.074219 "/></clipPath><clipPath id="2ce4d46e60"><path d="M 134.179688 120.628906 L 235 120.628906 L 235 253.953125 L 134.179688 253.953125 Z M 134.179688 120.628906 "/></clipPath><clipPath id="ef942561ba"><path d="M 167 152 L 199 152 L 199 203 L 167 203 Z M 167 152 "/></clipPath><clipPath id="2a2dd39f32"><path d="M 173.058594 147.308594 L 200.378906 153.136719 L 188.988281 206.535156 L 161.667969 200.707031 Z M 173.058594 147.308594 "/></clipPath><clipPath id="6847f31f00"><path d="M 173.058594 147.308594 L 200.378906 153.136719 L 188.988281 206.535156 L 161.667969 200.707031 Z M 173.058594 147.308594 "/></clipPath></defs><g id="21e6b2cee4"><g clip-rule="nonzero" clip-path="url(#65e64658d4)"><path style=" stroke:none;fill-rule:nonzero;fill:#02582c;fill-opacity:1;" d="M 279.855469 176.476562 C 274.839844 202.515625 265.308594 225.691406 251.507812 245.351562 C 235.660156 267.917969 213.953125 286.09375 186.898438 299.460938 C 160.109375 286.101562 138.582031 267.941406 122.84375 245.390625 C 109.117188 225.714844 99.605469 202.53125 94.578125 176.472656 C 90.03125 152.914062 90.0625 131.367188 90.886719 117.445312 C 91.15625 112.839844 91.53125 108.773438 91.917969 105.363281 C 99.105469 104.109375 108.703125 102.246094 119.429688 99.644531 C 138.296875 95.066406 164.402344 87.265625 187.292969 75.21875 C 210.171875 87.277344 236.222656 95.078125 255.042969 99.65625 C 265.742188 102.261719 275.234375 104.117188 282.375 105.367188 C 282.769531 108.773438 283.152344 112.847656 283.441406 117.496094 C 284.308594 131.40625 284.390625 152.929688 279.855469 176.476562 Z M 295.808594 116.726562 C 295.171875 106.558594 294.085938 98.847656 293.375 94.601562 C 287.152344 93.683594 274.03125 91.53125 257.972656 87.621094 C 238.226562 82.816406 210.277344 74.363281 187.292969 61.074219 C 164.324219 74.347656 136.308594 82.800781 116.507812 87.605469 C 100.488281 91.488281 87.144531 93.675781 80.871094 94.597656 C 80.183594 98.816406 79.128906 106.460938 78.523438 116.710938 C 77.652344 131.339844 77.625 153.996094 82.414062 178.820312 C 87.773438 206.589844 97.960938 231.378906 112.683594 252.480469 C 130.699219 278.292969 155.652344 298.710938 186.875 313.195312 C 218.371094 298.710938 243.519531 278.28125 261.644531 252.464844 C 276.457031 231.367188 286.675781 206.589844 292.019531 178.820312 C 296.800781 153.996094 296.714844 131.355469 295.808594 116.726562 "/></g><path style=" stroke:none;fill-rule:nonzero;fill:#02582c;fill-opacity:1;" d="M 184.507812 136.171875 C 203.785156 136.171875 219.410156 151.796875 219.410156 171.074219 C 219.410156 190.351562 203.785156 205.976562 184.507812 205.976562 C 165.230469 205.976562 149.605469 190.351562 149.605469 171.074219 C 149.605469 151.796875 165.230469 136.171875 184.507812 136.171875 Z M 233.785156 171.074219 C 233.785156 143.859375 211.722656 121.796875 184.507812 121.796875 C 157.292969 121.796875 135.230469 143.859375 135.230469 171.074219 C 135.230469 184.128906 140.316406 195.992188 148.605469 204.8125 L 164.457031 225.992188 L 184.507812 252.789062 L 204.558594 225.992188 L 220.402344 204.8125 C 228.695312 195.992188 233.785156 184.128906 233.785156 171.074219 "/><g clip-rule="nonzero" clip-path="url(#2ce4d46e60)"><path style=" stroke:none;fill-rule:nonzero;fill:#02582c;fill-opacity:1;" d="M 184.507812 136.171875 L 184.507812 137.21875 C 193.859375 137.21875 202.316406 141.003906 208.445312 147.132812 C 214.574219 153.265625 218.363281 161.71875 218.363281 171.074219 C 218.363281 180.425781 214.574219 188.886719 208.445312 195.015625 C 202.316406 201.144531 193.859375 204.929688 184.507812 204.929688 C 175.15625 204.929688 166.699219 201.144531 160.566406 195.015625 C 154.4375 188.886719 150.652344 180.425781 150.652344 171.074219 C 150.652344 161.71875 154.4375 153.265625 160.566406 147.132812 C 166.699219 141.003906 175.15625 137.21875 184.507812 137.21875 L 184.507812 135.125 C 164.652344 135.125 148.558594 151.214844 148.554688 171.074219 C 148.558594 190.933594 164.652344 207.023438 184.507812 207.023438 C 204.363281 207.023438 220.457031 190.933594 220.457031 171.074219 C 220.457031 151.214844 204.363281 135.125 184.507812 135.125 Z M 233.785156 171.074219 L 234.832031 171.074219 C 234.832031 143.28125 212.300781 120.746094 184.507812 120.746094 C 156.710938 120.746094 134.183594 143.28125 134.179688 171.074219 C 134.179688 184.40625 139.378906 196.527344 147.84375 205.53125 L 148.605469 204.8125 L 147.765625 205.441406 L 163.617188 226.621094 L 183.667969 253.414062 C 183.867188 253.679688 184.179688 253.835938 184.507812 253.835938 C 184.835938 253.835938 185.148438 253.679688 185.347656 253.414062 L 205.394531 226.621094 L 221.242188 205.441406 L 220.402344 204.8125 L 221.167969 205.53125 C 229.632812 196.527344 234.832031 184.40625 234.832031 171.074219 L 232.738281 171.074219 C 232.734375 183.855469 227.757812 195.457031 219.640625 204.097656 L 219.5625 204.1875 L 203.71875 225.367188 L 184.507812 251.039062 L 165.296875 225.367188 L 149.445312 204.1875 L 149.371094 204.097656 C 141.257812 195.460938 136.277344 183.855469 136.277344 171.074219 C 136.277344 157.753906 141.671875 145.703125 150.402344 136.96875 C 159.136719 128.238281 171.1875 122.84375 184.507812 122.84375 C 197.828125 122.84375 209.878906 128.238281 218.613281 136.96875 C 227.339844 145.703125 232.734375 157.753906 232.738281 171.074219 L 233.785156 171.074219 "/></g><g clip-rule="nonzero" clip-path="url(#ef942561ba)"><g clip-rule="nonzero" clip-path="url(#2a2dd39f32)"><g clip-rule="nonzero" clip-path="url(#6847f31f00)"><path style=" stroke:none;fill-rule:nonzero;fill:#02582c;fill-opacity:1;" d="M 170.25 202.347656 C 169.886719 201.953125 169.359375 198.707031 169.324219 196.667969 C 169.328125 195.261719 169.4375 193.867188 169.664062 192.476562 C 169.78125 191.777344 169.835938 191.203125 169.800781 191.058594 C 169.765625 190.925781 169.472656 190.078125 169.144531 189.175781 C 168.34375 186.957031 167.835938 184.851562 167.644531 182.964844 C 167.5625 182.144531 167.433594 180.949219 167.359375 180.308594 C 167.011719 177.371094 167.1875 174.808594 167.894531 172.375 C 169.367188 167.292969 172.28125 164.40625 178.195312 162.175781 C 178.894531 161.910156 180.414062 161.375 181.570312 160.988281 C 186.164062 159.4375 186.933594 159.078125 191.265625 156.4375 C 192.253906 155.835938 193.886719 154.769531 194.894531 154.070312 C 196.902344 152.675781 197.257812 152.484375 197.652344 152.566406 C 198.34375 152.714844 198.40625 153.070312 198.042969 154.777344 C 197.722656 156.277344 197.617188 157.359375 197.554688 159.84375 C 197.523438 161.917969 197.363281 163.984375 197.074219 166.039062 C 196.210938 172.65625 195.648438 174.964844 194.199219 177.804688 C 192.421875 181.285156 189.636719 184.226562 186.855469 185.546875 C 184.636719 186.585938 182.359375 187.453125 180.019531 188.148438 C 176.625 189.179688 174.546875 189.972656 173 190.828125 C 172.703125 191.007812 172.394531 191.160156 172.074219 191.292969 C 171.933594 191.261719 172.601562 188.84375 173.109375 187.546875 C 173.769531 185.859375 175.015625 183.578125 176.378906 181.558594 C 178.078125 179.042969 179.53125 177.25 183.253906 173.066406 C 185.195312 170.890625 185.703125 170.328125 187.449219 168.429688 C 189.453125 166.25 189.847656 165.792969 190.703125 164.636719 C 192.15625 162.675781 193.039062 160.820312 192.566406 160.71875 C 192.433594 160.691406 192.441406 160.683594 192.113281 161.363281 C 191.820312 161.976562 190.492188 163.847656 189.660156 164.820312 C 189 165.59375 187.5625 167.132812 186.351562 168.367188 C 185.980469 168.746094 184.984375 169.847656 184.136719 170.816406 C 183.289062 171.785156 182.050781 173.179688 181.386719 173.917969 C 176.171875 179.691406 172.96875 184.457031 171.453125 188.71875 C 171.105469 189.695312 170.574219 192.292969 170.472656 193.519531 C 170.246094 196.199219 170.515625 199.09375 171.179688 201.136719 C 171.453125 201.972656 171.371094 202.398438 170.90625 202.535156 C 170.644531 202.632812 170.421875 202.574219 170.25 202.347656 Z M 170.25 202.347656 "/></g></g></g></g></svg>